<?xml version="1.0" encoding="UTF-8" standalone="no"?>
<!-- Created with Inkscape (http://www.inkscape.org/) -->

<svg
   width="210mm"
   height="297mm"
   viewBox="0 0 210 297"
   version="1.1"
   id="svg5"
   inkscape:export-filename="starry.svg"
   inkscape:export-xdpi="96"
   inkscape:export-ydpi="96"
   xml:space="preserve"
   xmlns:inkscape="http://www.inkscape.org/namespaces/inkscape"
   xmlns:sodipodi="http://sodipodi.sourceforge.net/DTD/sodipodi-0.dtd"
   xmlns="http://www.w3.org/2000/svg"
   xmlns:svg="http://www.w3.org/2000/svg"><sodipodi:namedview
     id="namedview7"
     pagecolor="#ffffff"
     bordercolor="#000000"
     borderopacity="0.25"
     inkscape:showpageshadow="2"
     inkscape:pageopacity="0.0"
     inkscape:pagecheckerboard="0"
     inkscape:deskcolor="#d1d1d1"
     inkscape:document-units="mm"
     showgrid="false"
     inkscape:zoom="0.5946522"
     inkscape:cx="358.19257"
     inkscape:cy="385.09905"
     inkscape:window-width="1347"
     inkscape:window-height="752"
     inkscape:window-x="1918"
     inkscape:window-y="172"
     inkscape:window-maximized="0"
     inkscape:current-layer="layer1" /><defs
     id="defs2" /><g
     inkscape:label="Layer 1"
     inkscape:groupmode="layer"
     id="layer1"><path
       id="path15806"
       style="fill:#f1f1f1;fill-opacity:1;stroke:#d8d8d8;stroke-width:1.864;stroke-linecap:square;stroke-linejoin:bevel;stroke-dasharray:none;stroke-opacity:1"
       sodipodi:type="inkscape:offset"
       inkscape:radius="0"
       inkscape:original="M 118.37109 26.638672 C 109.95494 26.201482 101.87726 30.129615 95.115234 34.962891 C 90.725598 40.653151 85.773342 37.027361 80.445312 35.054688 C 74.001809 32.675044 66.949195 34.115431 61.230469 37.623047 C 52.816657 42.764139 46.000145 53.903621 49.976562 63.769531 C 42.236079 67.272238 33.888263 72.269317 31.25 80.882812 C 30.007452 88.006253 29.135733 96.072252 33.642578 102.34766 C 37.735619 108.93025 45.359168 112.02743 52.730469 112.89062 C 66.438061 116.99085 79.557457 108.10802 89.351562 99.419922 C 91.685222 101.24958 94.627849 101.97795 97.486328 102.50195 C 105.68147 101.33517 108.86382 111.71752 116.66992 109.16211 C 122.73121 108.19055 130.41715 103.93552 135.52539 109.4082 C 139.49573 116.81448 145.16993 123.63661 153.0332 127.16016 C 162.05478 131.4172 174.08615 132.38107 182.35156 126.05469 C 189.53762 118.15819 186.49733 106.6266 187.39453 96.962891 C 190.51904 83.688652 183.93315 70.216009 174.37109 61.246094 C 169.61935 54.646091 161.33353 54.095555 153.90234 54.148438 C 145.7424 55.216895 141.29987 47.860823 142.67578 40.535156 C 140.82232 31.184869 130.26882 27.985876 121.99609 27.103516 C 120.78283 26.852777 119.5734 26.701128 118.37109 26.638672 z "
       d="m 118.37109,26.638672 c -8.41615,-0.43719 -16.49383,3.490943 -23.255856,8.324219 -4.389636,5.69026 -9.341892,2.06447 -14.669922,0.0918 C 74.001809,32.675044 66.949195,34.115431 61.230469,37.623047 52.816657,42.764139 46.000145,53.903621 49.976562,63.769531 42.236079,67.272238 33.888263,72.269317 31.25,80.882812 c -1.242548,7.123441 -2.114267,15.18944 2.392578,21.464848 4.093041,6.58259 11.71659,9.67977 19.087891,10.54296 13.707592,4.10023 26.826988,-4.7826 36.621093,-13.470698 2.33366,1.829658 5.276287,2.558028 8.134766,3.082028 8.195142,-1.16678 11.377492,9.21557 19.183592,6.66016 6.06129,-0.97156 13.74723,-5.22659 18.85547,0.24609 3.97034,7.40628 9.64454,14.22841 17.50781,17.75196 9.02158,4.25704 21.05295,5.22091 29.31836,-1.10547 7.18606,-7.8965 4.14577,-19.42809 5.04297,-29.091799 3.12451,-13.274239 -3.46138,-26.746882 -13.02344,-35.716797 -4.75174,-6.600003 -13.03756,-7.150539 -20.46875,-7.097656 -8.15994,1.068457 -12.60247,-6.287615 -11.22656,-13.613282 -1.85346,-9.350287 -12.40696,-12.54928 -20.67969,-13.43164 -1.21326,-0.250739 -2.42269,-0.402388 -3.625,-0.464844 z" /><path
       style="fill:#f1f1f1;fill-opacity:1;stroke:#d8d8d8;stroke-width:1.864;stroke-linecap:square;stroke-linejoin:bevel;stroke-dasharray:none;stroke-opacity:1"
       d="m 32.720338,156.05085 c -14.996283,3.8592 -34.3818456,0.47078 -41.5301391,-14.89853 -4.8663089,-13.86289 10.0844081,-26.49783 22.8740001,-27.5778 13.790727,-1.92855 22.40879,16.09282 36.307043,11.69402 9.176808,-4.93708 14.837906,-17.26928 27.077145,-15.22972 11.240148,0.46302 24.350413,7.17773 24.343563,19.73867 1.72978,11.6443 14.27866,11.45294 22.4949,15.80874 9.45537,4.476 16.29579,16.01594 9.84203,25.79434 -6.45811,14.23348 -27.34949,23.32285 -39.781801,11.1384 -7.091552,-10.07553 -20.345905,-11.05242 -30.640818,-5.77984 -12.720657,4.35476 -28.906401,-2.4456 -31.595904,-16.28917 l 0.04354,-2.18523 z"
       id="path15813" /></g></svg>
