<?xml version="1.0" encoding="UTF-8" standalone="no"?>
<!-- Created with Inkscape (http://www.inkscape.org/) -->

<svg
   version="1.1"
   id="svg83"
   width="118.08337"
   height="64.929901"
   viewBox="0 0 118.08337 64.929901"
   sodipodi:docname="green_mountains.svg"
   xml:space="preserve"
   inkscape:export-filename="snowy_mountains.svg"
   inkscape:export-xdpi="96"
   inkscape:export-ydpi="96"
   inkscape:version="0.0"
   xmlns:inkscape="http://www.inkscape.org/namespaces/inkscape"
   xmlns:sodipodi="http://sodipodi.sourceforge.net/DTD/sodipodi-0.dtd"
   xmlns:xlink="http://www.w3.org/1999/xlink"
   xmlns="http://www.w3.org/2000/svg"
   xmlns:svg="http://www.w3.org/2000/svg"><defs
     id="defs87"><linearGradient
       id="linearGradient4096"
       inkscape:swatch="solid"><stop
         style="stop-color:#e9d6b1;stop-opacity:1;"
         offset="0"
         id="stop4094" /></linearGradient><linearGradient
       id="linearGradient2069"
       inkscape:swatch="solid"><stop
         style="stop-color:#000000;stop-opacity:1;"
         offset="0"
         id="stop2067" /></linearGradient><linearGradient
       inkscape:collect="always"
       xlink:href="#linearGradient4096"
       id="linearGradient4098"
       x1="1.2312386"
       y1="34.134052"
       x2="119.2"
       y2="34.134052"
       gradientUnits="userSpaceOnUse" /></defs><sodipodi:namedview
     id="namedview85"
     pagecolor="#ffffff"
     bordercolor="#000000"
     borderopacity="0.25"
     inkscape:showpageshadow="2"
     inkscape:pageopacity="0.0"
     inkscape:pagecheckerboard="0"
     inkscape:deskcolor="#d1d1d1"
     showgrid="false"
     inkscape:connector-spacing="1"
     inkscape:zoom="5.1402265"
     inkscape:cx="44.939654"
     inkscape:cy="31.807937"
     inkscape:window-width="1589"
     inkscape:window-height="685"
     inkscape:window-x="1703"
     inkscape:window-y="185"
     inkscape:window-maximized="0"
     inkscape:current-layer="g89" /><g
     inkscape:groupmode="layer"
     inkscape:label="Image"
     id="g89"
     transform="translate(-1.2666323,-1.6795161)"><path
       style="fill:#f3cb53;fill-opacity:1;stroke:#d68b00;stroke-width:0.62;stroke-linecap:square;stroke-linejoin:bevel;stroke-opacity:1"
       d="m -5.5424061,62.960862 c -3.5410336,10.115756 5.44171346,21.318622 15.8476651,21.501803 9.918691,1.113043 19.920813,1.276076 29.85457,2.20858 20.947659,1.1157 41.914528,-3.627731 60.934371,-12.278987 6.26614,-3.579571 13.86898,-3.337268 19.80532,-7.590879 7.5628,-4.107911 10.65047,-12.572627 12.34055,-20.498784 3.76591,-12.645564 0.25438,-26.042375 3.19321,-38.8175962 1.65846,-5.5609063 -2.58271,-14.3370859 -6.80302,-6.3673966 -2.3716,2.4584553 -4.86878,4.3234437 -4.89154,-0.12672378 -1.89471,-6.04983362 -9.54355,-9.77609232 -14.96428,-5.74553042 -5.08385,3.5489009 -6.25608,10.1267338 -4.52268,15.767915 -1.14519,7.842281 -6.966941,-6.125212 -8.467196,-4.5052979 -3.487549,5.8586859 -3.745135,13.1755129 -2.531249,19.5357599 -5.501823,2.067551 -6.186718,-9.218715 -8.679394,-8.102608 -2.248863,4.565666 0.470223,16.63837 -7.462568,14.049672 -4.542445,-4.707749 1.699154,-14.829647 -5.096204,-16.335477 -3.969368,0.0024 -4.578856,-9.4971751 -4.65026,-2.981816 2.536932,3.719289 5.513844,11.419945 -1.982806,11.236759 C 62.541904,21.824154 60.15084,15.853459 55.094095,20.435308 49.17342,25.188674 46.59045,18.231261 48.683837,13.333369 49.291354,8.6718867 38.823349,1.6135964 41.10822,9.7856737 c 2.243665,2.8342973 4.576745,6.8000543 0.01996,8.6214893 -1.835016,5.703839 0.571886,13.234997 -6.224568,16.642339 -1.264979,2.391249 -0.180937,9.645659 -5.244236,6.150273 -3.836799,-3.635471 0.70344,-9.367163 -4.500986,-12.857972 -2.612452,-4.451392 -6.655013,-9.511674 -4.384571,-14.991944 5.247354,-1.157917 -0.765718,-4.9354684 -2.903046,-1.444596 -6.096753,4.054619 -2.0812,10.954787 0.400324,15.252165 C 16.660958,30.689985 13.252744,39.99006 8.5248408,35.702269 7.5038533,33.455993 5.7109783,22.450232 5.87488,29.799686 4.6408323,34.3614 7.6069246,41.160596 5.5646399,44.141189 c -4.2742173,1.21768 -9.4628122,4.350392 -6.40489121,9.242099 -3.19514789,3.082257 -1.81056999,6.945775 -4.70215479,9.577574 z"
       id="path1874" /><path
       style="fill:#f3ab53;fill-opacity:1;stroke:#ffeb43;stroke-width:0.62;stroke-linecap:square;stroke-linejoin:bevel;stroke-opacity:1"
       d="m -2.6242468,62.182686 c 0.3242399,0.06485 0.644612,0.235557 0.9727198,0.194544 0.2320072,-0.029 0.3665422,-0.302252 0.5836318,-0.389088 0.761601,-0.30464 1.57003265,-0.480872 2.3345275,-0.778176 1.0927481,-0.424957 1.6718586,-1.036551 2.5290714,-1.750895 0.1796199,-0.149684 0.4375702,-0.206511 0.5836319,-0.389088 0.5711018,-0.713878 0.7075504,-2.990082 0.7781758,-3.696335 0.3305241,-3.305241 -0.080262,-6.624074 0.194544,-9.921742 0.039206,-0.47047 0.3223228,-0.894452 0.3890879,-1.361808 0.1194909,-0.836436 -0.00688,-1.737126 0.3890879,-2.529071 0.2345258,-0.469052 1.0372384,-1.686377 1.5563516,-1.167264 0.045854,0.04586 -0.045854,0.14869 0,0.194544 0.045854,0.04585 0.1486895,-0.04585 0.194544,0 0.4096389,0.409639 -0.5524477,4.209445 -0.5836319,4.474511 -0.083938,0.713472 0.024713,4.192264 1.7508956,3.501791 0.6555335,-0.262213 1.3946585,-0.948722 1.9454395,-1.361808 0.489419,-0.367064 1.078636,-0.590547 1.556351,-0.972719 0.134189,-0.107351 0.363742,-0.909353 0.389088,-0.97272 0.826355,-2.065887 0.778176,-2.864708 0.778176,-5.058143 0,-3.83031 0.08435,-7.668149 -1.361808,-11.283549 -0.05385,-0.134634 -0.129696,-0.259392 -0.194544,-0.389088 -0.129695,-0.129696 -0.30706,-0.225034 -0.389087,-0.389088 -0.029,-0.058 0.143906,-0.04051 0.194544,0 0.28645,0.22916 0.536612,0.502104 0.778175,0.778176 0.581743,0.664848 1.021212,1.345259 1.361808,2.139983 0.703066,1.640487 1.344349,3.27233 2.139984,4.863599 0.316372,0.632745 0.04911,0.462758 0.389087,0.97272 0.152613,0.228919 0.418556,0.36353 0.583632,0.583632 0.348082,0.464109 0.33535,1.043122 0.97272,1.361807 0.587114,0.293557 1.330533,0.263532 1.94544,0 1.255391,-0.538024 2.601057,-1.157543 3.307247,-2.334527 0.105506,-0.175844 0.08904,-0.407788 0.194544,-0.583632 0.09437,-0.157279 0.336383,-0.213405 0.389088,-0.389088 0.366021,-1.220071 0.299846,-2.641497 0.389088,-3.890879 0.08894,-1.245192 0.459717,-2.457195 0.583632,-3.696335 0.05162,-0.516209 -0.08529,-1.044626 0,-1.556352 0.315185,-1.891112 1.923415,-2.664885 3.696335,-2.918159 0.994529,-0.142076 1.777324,-0.373231 2.723615,0.194544 0.346358,0.207814 0.963858,0.760452 1.167264,1.167264 0.058,0.116003 -0.04101,0.266047 0,0.389088 0.029,0.087 0.194544,0.102835 0.194544,0.194544 0,0.06485 -0.140587,-0.03597 -0.194544,0 -0.345492,0.230328 -0.627228,0.547847 -0.97272,0.778175 -0.730382,0.486922 -1.587684,0.599298 -2.334527,0.97272 -0.164054,0.08203 -0.236476,0.287346 -0.389088,0.389088 -0.05396,0.03597 -0.14869,-0.04585 -0.194544,0 -0.320981,0.320981 0.03234,0.909025 0,1.361808 -0.126385,1.769385 -0.194544,3.470416 -0.194544,5.252686 0,2.184679 -0.04126,4.489865 0.583632,6.614495 0.122746,0.417337 0.416319,0.765713 0.583631,1.167264 0.32389,0.777335 0.545781,1.713044 1.167264,2.334527 0.04734,0.04734 0.957795,0.0043 0.97272,0 0.278851,-0.07967 0.505627,-0.289979 0.778176,-0.389088 1.942518,-0.70637 0.828438,-0.0816 2.918159,-0.778176 0.468524,-0.156174 0.912207,-0.379268 1.361808,-0.583631 0.264014,-0.120007 0.60417,-0.157081 0.778176,-0.389088 0.366498,-0.488665 0.411168,-1.565105 0.583631,-2.139984 0.532385,-1.774615 0.203358,-0.218047 0.778176,-1.750895 0.285263,-0.7607 0.116873,-1.363274 0.194544,-2.139984 0.170872,-1.708722 0.367298,-3.525152 0.194544,-5.252687 -0.06131,-0.613105 -0.48096,-1.382076 -0.97272,-1.750895 -0.116003,-0.087 -0.302085,-0.07854 -0.389087,-0.194544 -0.14342,-0.191227 -0.321708,-1.227047 -0.389088,-1.361808 -0.08203,-0.164054 -0.324686,-0.217348 -0.389088,-0.389088 -0.586019,-1.562715 -0.797945,-5.358271 -0.389088,-7.198126 0.0175,-0.07877 0.128528,-1.492088 0.389088,-1.361808 1.061315,0.530658 1.517488,2.213544 2.139983,3.112703 1.41075,2.037751 2.969958,3.994476 4.085423,6.225407 0.285626,0.571251 0.49255,1.179644 0.778176,1.750896 0.104564,0.209128 0.29916,0.367804 0.389088,0.583631 0.236616,0.567879 0.325826,1.192318 0.583632,1.750896 0.166927,0.361675 1.226182,1.750896 1.556351,1.750896 0.651767,0 0.327433,-0.735676 0.389088,-1.167264 0.137185,-0.960289 0.348352,-1.97704 0.583632,-2.918159 0.124874,-0.499495 0.447007,-0.883619 0.583632,-1.361808 0.05981,-0.209323 0.333702,-1.418581 0.389088,-1.750896 0.04264,-0.255862 -0.116004,-0.546168 0,-0.778176 0.58567,-1.17134 1.869725,-0.284079 2.918159,-0.583631 2.216816,-0.633376 2.08446,-2.154395 2.334528,-4.279967 0.115415,-0.981033 1.251762,-5.337186 1.945439,-6.030863 0.236517,-0.236517 0.56082,-0.789582 0.97272,-0.583632 0.353021,0.17651 0.353794,1.84587 0.389088,2.139984 0.272182,2.268181 0.435952,4.550363 0.778176,6.809038 0.274612,1.812438 0.568132,4.648389 1.750895,6.225407 1.037083,1.382776 3.335588,2.670772 3.696336,4.474511 0.149912,0.749559 -0.102933,3.813679 0,3.890879 0.636772,0.477579 0.847676,0.347406 1.556351,0.583632 0.661215,0.220404 1.205758,0.537024 1.94544,0.389087 1.339902,-0.26798 1.977678,-1.199502 2.918159,-2.139983 0.259392,-0.259392 0.583753,-0.4671 0.778176,-0.778176 0.524778,-0.839645 0.927463,-2.153502 1.167264,-3.112703 0.09437,-0.377471 -0.07631,-0.785732 0,-1.167264 0.404822,-2.024113 0.259392,-0.389088 0.778176,-1.945439 0.170429,-0.51129 -0.04197,-1.004484 0.194543,-1.556352 0.898505,-2.09651 2.602629,-4.55068 3.89088,-6.225407 1.120567,-1.456738 2.725706,-2.667133 4.085423,-3.890879 2.347263,-2.112537 -0.421773,0.170422 1.361807,-1.167264 0.164054,-0.12304 0.365171,-0.697382 0.194544,-0.583631 -0.673223,0.448815 -1.119352,1.484483 -1.556351,2.139983 -0.454456,0.681684 -1.100209,1.549731 -1.361808,2.334528 -0.087,0.261009 -0.01481,0.930325 0,1.167263 0.100649,1.610388 0.08538,3.533991 0.778176,5.058143 0.156469,0.344233 0.414529,0.634514 0.583632,0.97272 0.183417,0.366836 0.143007,0.839156 0.389088,1.167264 0.087,0.116003 0.286554,0.09201 0.389087,0.194544 0.205068,0.205067 0.184021,0.573108 0.389088,0.778175 0.04585,0.04585 0.129696,0 0.194544,0 0.06485,0.06485 0.139519,0.121177 0.194544,0.194544 0.552302,0.736402 1.793902,2.997343 2.723616,3.307248 0.361149,0.120383 1.499995,0 1.750895,0 1.167264,0 2.334528,0 3.501791,0 1.014737,0 0.389088,-0.231198 0.389088,-0.97272 0,-0.501209 0.219087,-3.428162 0,-4.085423 -0.058,-0.174006 -0.307061,-0.225034 -0.389088,-0.389088 -0.673875,-1.347751 -0.778175,-1.101905 -0.778175,-2.723615 0,-0.32424 -0.145005,-0.682711 0,-0.97272 0.797931,-1.595864 2.756203,-1.4576 2.529071,-3.501791 -0.115246,-1.037214 -0.40902,-2.322831 -0.778176,-3.307248 -0.414122,-1.104327 -1.017006,-2.105187 -1.167264,-3.307247 -0.103548,-0.828386 -0.04102,-1.903209 0,-2.723615 0.04545,-0.909049 0.141097,-1.8150014 0.194544,-2.7236156 0.02193,-0.3728332 -0.103349,-0.6748264 0.194544,-0.9727197 0.04586,-0.045854 -0.04585,0.1486895 0,0.1945439 0.04586,0.045854 0.144142,-0.040802 0.194544,0 1.323013,1.0710102 2.533548,2.2800774 3.890879,3.3072474 3.481712,2.634808 4.699336,2.469813 7.00358,6.41995 0.41123,0.704963 0.39856,1.82206 1.16726,2.334528 0.054,0.03597 0.14869,-0.04585 0.19455,0 0.0649,0.06485 0.12969,0.259392 0.19454,0.194544 0.12631,-0.126312 0.27286,-0.915428 0.38909,-1.167264 0.57132,-1.237867 1.17957,-2.458468 1.7509,-3.696335 0.17187,-0.372386 0.20567,-0.800428 0.38908,-1.167264 0.48305,-0.9661 1.05592,-2.18606 1.7509,-3.112703 0.23762,-0.31683 0.59954,-0.615447 0.77818,-0.97272 0.24218,-0.484367 0.048,-1.10155 0.38908,-1.5563515 0.86516,-1.1535405 1.52597,-1.240261 1.94544,-2.9181593 0.17909,-0.7163441 -0.98813,-2.7852745 -1.16726,-3.5017912 -0.0157,-0.062912 0.12969,0 0.19454,0 0.98988,0 1.68575,0.9075733 2.33453,1.5563516 1.23325,1.2332517 1.94838,3.0198364 2.91816,4.474511 0.41967,0.6295094 0.78766,1.1577789 0.97272,0.9727197 0.3076,-0.307601 0.38909,-0.7781758 0.58363,-1.1672637 1.16917,-2.3383417 1.4846,-4.1460681 1.7509,-6.8090384 0.0496,-0.49574409 -0.25237,-0.9438083 -0.19455,-0.9727198 0.67039,-0.335196 3.31749,1.4908261 3.69634,1.9454396 0.46415,0.5569777 0.67826,1.2829056 0.97272,1.9454395 2.79922,6.2982505 4.10154,11.5586895 5.44723,18.2871315 0.52897,2.644861 1.11004,5.290838 1.36181,7.976302 0.15737,1.678687 0,3.372096 0,5.058143 0,4.475693 -0.36005,8.787106 -0.97272,13.228989 -0.30266,2.194261 -0.51246,4.393934 -0.38909,6.614495 0.0824,1.482949 0.64656,1.6122 0.19454,3.307247 -0.35434,1.328783 -1.45612,4.765931 -2.13998,5.836318 -1.30204,2.037978 -4.40566,5.91362 -6.03086,8.170847 -2.99328,4.157324 1.44207,-1.098776 -4.8636,5.641774 -0.65859,0.704007 -1.20221,1.526008 -1.94544,2.139984 -0.76315,0.630424 -1.66237,1.078172 -2.52907,1.556351 -2.26505,1.249684 -5.37136,2.653581 -7.78176,3.307248 -2.23394,0.605814 -4.540545,0.901978 -6.809038,1.361807 -2.530273,0.512893 -5.061239,1.022695 -7.587214,1.556352 C 82.235254,89.599804 75.86796,91.31782 69.357016,91.947911 64.381243,92.429438 59.105377,92.132043 54.182588,91.753367 52.811006,91.647861 51.463592,91.328622 50.097165,91.169735 48.674213,91.004276 47.236833,90.97249 45.817198,90.780647 44.24175,90.567749 42.647279,90.337034 41.148143,89.807928 40.601191,89.614886 40.110575,89.289144 39.591791,89.029752 39.008159,88.835208 38.427542,88.631377 37.840896,88.44612 36.608784,88.057032 35.394105,87.607684 34.14456,87.278856 29.063061,85.94162 34.952533,87.732042 30.642769,86.50068 28.141928,85.786154 25.748187,84.685348 23.250099,83.971609 22.870821,83.863244 22.465513,83.872739 22.082835,83.777065 19.608484,83.158477 17.118275,82.29432 14.884709,81.05345 14.130843,80.634635 14.397353,80.685092 13.717445,80.08073 11.894285,78.460143 10.24469,76.677662 8.6593026,74.828043 7.0620803,72.964617 6.3113801,70.342816 4.3793356,68.797181 4.0928851,68.56802 3.9292675,68.183059 3.6011598,68.019005 3.2889459,67.862898 2.9117522,67.856567 2.62844,67.629917 1.5449406,66.763117 0.47271547,65.923362 -0.6788073,65.100845 -1.0166936,64.859498 -1.2801343,64.508366 -1.651527,64.32267 c -0.1049825,-0.05249 -0.8577106,-0.274079 -0.9727198,-0.389088 -0.045855,-0.04586 0.045854,-0.14869 0,-0.194544 -0.045855,-0.04586 -0.1486895,0.04585 -0.194544,0 -0.091709,-0.09171 0.091709,-0.297379 0,-0.389088 -0.2593919,-0.259392 -0.1945439,0.32424 -0.1945439,-0.194544"
       id="path13658" /><path
       style="fill:#5aa02c;stroke-width:0.32"
       d="M 2.0995511,65.359998 C 6.6931693,58.307166 19.038099,39.999999 19.200364,39.999999 c 0.282097,0 12.906302,18.938486 12.906302,19.361679 0,0.177885 -0.981961,1.798279 -2.182137,3.600874 l -2.182137,3.277446 H 14.634393 1.5263936 Z m 26.6535739,0.9055 c 0,-0.498675 25.716891,-38.74398 26.048209,-38.736511 0.219268,0.0049 4.166282,5.674084 8.771146,12.598087 l 8.37248,12.5891 -4.502163,6.761911 -4.502167,6.761913 H 45.870314 c -9.388672,0 -17.117189,0.1146 -17.117189,0.0255 z m 35.746427,-0.9055 c 4.604845,-7.070073 16.938765,-25.359999 17.101664,-25.359999 0.119325,0 2.038768,2.733728 4.265427,6.07495 l 4.048467,6.07495 -3.917555,7.037066 -3.917555,7.037062 -9.076803,0.008 -9.076803,0.008 0.573158,-0.88 z m 18.957046,-0.16 c 0.345837,-0.572 8.438279,-15.008 17.983202,-32.079999 C 110.98473,16.048 118.84951,2.0199999 118.9171,1.9466666 118.9847,1.8733333 119.04,16.309333 119.04,34.026665 V 66.239998 H 100.9339 82.827802 Z"
       id="path255"
       inkscape:label="path255"
       sodipodi:nodetypes="sssscccsscscccsssssccccccssssscccs" /><path
       style="fill:#ffefa2;fill-opacity:1;stroke:url(#linearGradient4098);stroke-width:0.62;stroke-linecap:square;stroke-linejoin:bevel;stroke-dasharray:none"
       d="M 2.0995511,65.359998 C 6.6931693,58.307166 19.038099,39.999999 19.200364,39.999999 c 0.282097,0 12.906302,18.938486 12.906302,19.361679 0,0.177885 -0.981961,1.798279 -2.182137,3.600874 l -2.182137,3.277446 H 14.634393 1.5263936 Z m 26.6535739,0.9055 c 0,-0.498675 25.716891,-38.74398 26.048209,-38.736511 0.219268,0.0049 4.166282,5.674084 8.771146,12.598087 l 8.37248,12.5891 -4.502163,6.761911 -4.502167,6.761913 H 45.870314 c -9.388672,0 -17.117189,0.1146 -17.117189,0.0255 z m 35.746427,-0.9055 c 4.604845,-7.070073 16.938765,-25.359999 17.101664,-25.359999 0.119325,0 2.038768,2.733728 4.265427,6.07495 l 4.048467,6.07495 -3.917555,7.037066 -3.917555,7.037062 -9.076803,0.008 -9.076803,0.008 0.573158,-0.88 z m 18.957046,-0.16 c 0.345837,-0.572 8.438279,-15.008 17.983202,-32.079999 C 110.98473,16.048 118.84951,2.0199999 118.9171,1.9466666 118.9847,1.8733333 119.04,16.309333 119.04,34.026665 V 66.239998 H 100.9339 82.827802 Z"
       id="path1386"
       inkscape:label="path255"
       sodipodi:nodetypes="sssscccsscscccsssssccccccssssscccs" /></g></svg>
