<?xml version="1.0" encoding="UTF-8" standalone="no"?>
<!-- Created with Inkscape (http://www.inkscape.org/) -->

<svg
   version="1.1"
   id="svg83"
   width="118.08337"
   height="64.929901"
   viewBox="0 0 118.08337 64.929901"
   sodipodi:docname="green_mountains.svg"
   xml:space="preserve"
   inkscape:export-filename="hot_mountains.svg"
   inkscape:export-xdpi="96"
   inkscape:export-ydpi="96"
   inkscape:version="0.0"
   xmlns:inkscape="http://www.inkscape.org/namespaces/inkscape"
   xmlns:sodipodi="http://sodipodi.sourceforge.net/DTD/sodipodi-0.dtd"
   xmlns:xlink="http://www.w3.org/1999/xlink"
   xmlns="http://www.w3.org/2000/svg"
   xmlns:svg="http://www.w3.org/2000/svg"><defs
     id="defs87"><linearGradient
       id="linearGradient4096"
       inkscape:swatch="solid"><stop
         style="stop-color:#e9d6b1;stop-opacity:1;"
         offset="0"
         id="stop4094" /></linearGradient><linearGradient
       id="linearGradient2069"
       inkscape:swatch="solid"><stop
         style="stop-color:#000000;stop-opacity:1;"
         offset="0"
         id="stop2067" /></linearGradient><linearGradient
       inkscape:collect="always"
       xlink:href="#linearGradient4096"
       id="linearGradient4098"
       x1="1.2312386"
       y1="34.134052"
       x2="119.2"
       y2="34.134052"
       gradientUnits="userSpaceOnUse" /></defs><sodipodi:namedview
     id="namedview85"
     pagecolor="#ffffff"
     bordercolor="#000000"
     borderopacity="0.25"
     inkscape:showpageshadow="2"
     inkscape:pageopacity="0.0"
     inkscape:pagecheckerboard="0"
     inkscape:deskcolor="#d1d1d1"
     showgrid="false"
     inkscape:connector-spacing="1"
     inkscape:zoom="5.1402265"
     inkscape:cx="44.939654"
     inkscape:cy="31.807937"
     inkscape:window-width="1589"
     inkscape:window-height="685"
     inkscape:window-x="1703"
     inkscape:window-y="185"
     inkscape:window-maximized="0"
     inkscape:current-layer="g89" /><g
     inkscape:groupmode="layer"
     inkscape:label="Image"
     id="g89"
     transform="translate(-1.2666323,-1.6795161)"><path
       style="fill:#ffefa2;fill-opacity:1;stroke:url(#linearGradient4098);stroke-width:0.62;stroke-linecap:square;stroke-linejoin:bevel;stroke-dasharray:none"
       d="M 2.0995511,65.359998 C 6.6931693,58.307166 19.038099,39.999999 19.200364,39.999999 c 0.282097,0 12.906302,18.938486 12.906302,19.361679 0,0.177885 -0.981961,1.798279 -2.182137,3.600874 l -2.182137,3.277446 H 14.634393 1.5263936 Z m 26.6535739,0.9055 c 0,-0.498675 25.716891,-38.74398 26.048209,-38.736511 0.219268,0.0049 4.166282,5.674084 8.771146,12.598087 l 8.37248,12.5891 -4.502163,6.761911 -4.502167,6.761913 H 45.870314 c -9.388672,0 -17.117189,0.1146 -17.117189,0.0255 z m 35.746427,-0.9055 c 4.604845,-7.070073 16.938765,-25.359999 17.101664,-25.359999 0.119325,0 2.038768,2.733728 4.265427,6.07495 l 4.048467,6.07495 -3.917555,7.037066 -3.917555,7.037062 -9.076803,0.008 -9.076803,0.008 0.573158,-0.88 z m 18.957046,-0.16 c 0.345837,-0.572 8.438279,-15.008 17.983202,-32.079999 C 110.98473,16.048 118.84951,2.0199999 118.9171,1.9466666 118.9847,1.8733333 119.04,16.309333 119.04,34.026665 V 66.239998 H 100.9339 82.827802 Z"
       id="path1386"
       inkscape:label="path255"
       sodipodi:nodetypes="sssscccsscscccsssssccccccssssscccs" /></g></svg>
