<?xml version="1.0" encoding="UTF-8" standalone="no"?>
<!-- Created with Inkscape (http://www.inkscape.org/) -->

<svg
   version="1.1"
   id="svg83"
   width="118.08337"
   height="64.929901"
   viewBox="0 0 118.08337 64.929901"
   sodipodi:docname="green_mountains.svg"
   xml:space="preserve"
   inkscape:export-filename="../ada/projects/weather-report/images/green_mountains.svg"
   inkscape:export-xdpi="96"
   inkscape:export-ydpi="96"
   xmlns:inkscape="http://www.inkscape.org/namespaces/inkscape"
   xmlns:sodipodi="http://sodipodi.sourceforge.net/DTD/sodipodi-0.dtd"
   xmlns:xlink="http://www.w3.org/1999/xlink"
   xmlns="http://www.w3.org/2000/svg"
   xmlns:svg="http://www.w3.org/2000/svg"><defs
     id="defs87"><linearGradient
       id="linearGradient4096"
       inkscape:swatch="solid"><stop
         style="stop-color:#a4812f;stop-opacity:1;"
         offset="0"
         id="stop4094" /></linearGradient><linearGradient
       id="linearGradient2069"
       inkscape:swatch="solid"><stop
         style="stop-color:#000000;stop-opacity:1;"
         offset="0"
         id="stop2067" /></linearGradient><linearGradient
       inkscape:collect="always"
       xlink:href="#linearGradient4096"
       id="linearGradient4098"
       x1="1.2312386"
       y1="34.134052"
       x2="119.2"
       y2="34.134052"
       gradientUnits="userSpaceOnUse" /></defs><sodipodi:namedview
     id="namedview85"
     pagecolor="#ffffff"
     bordercolor="#000000"
     borderopacity="0.25"
     inkscape:showpageshadow="2"
     inkscape:pageopacity="0.0"
     inkscape:pagecheckerboard="0"
     inkscape:deskcolor="#d1d1d1"
     showgrid="false"
     inkscape:connector-spacing="1" /><g
     inkscape:groupmode="layer"
     inkscape:label="Image"
     id="g89"
     transform="translate(-1.2666323,-1.6795161)"><path
       style="fill:#5aa02c;stroke-width:0.32"
       d="M 2.0995511,65.359998 C 6.6931693,58.307166 19.038099,39.999999 19.200364,39.999999 c 0.282097,0 12.906302,18.938486 12.906302,19.361679 0,0.177885 -0.981961,1.798279 -2.182137,3.600874 l -2.182137,3.277446 H 14.634393 1.5263936 Z m 26.6535739,0.9055 c 0,-0.498675 25.716891,-38.74398 26.048209,-38.736511 0.219268,0.0049 4.166282,5.674084 8.771146,12.598087 l 8.37248,12.5891 -4.502163,6.761911 -4.502167,6.761913 H 45.870314 c -9.388672,0 -17.117189,0.1146 -17.117189,0.0255 z m 35.746427,-0.9055 c 4.604845,-7.070073 16.938765,-25.359999 17.101664,-25.359999 0.119325,0 2.038768,2.733728 4.265427,6.07495 l 4.048467,6.07495 -3.917555,7.037066 -3.917555,7.037062 -9.076803,0.008 -9.076803,0.008 0.573158,-0.88 z m 18.957046,-0.16 c 0.345837,-0.572 8.438279,-15.008 17.983202,-32.079999 C 110.98473,16.048 118.84951,2.0199999 118.9171,1.9466666 118.9847,1.8733333 119.04,16.309333 119.04,34.026665 V 66.239998 H 100.9339 82.827802 Z"
       id="path255"
       inkscape:label="path255"
       sodipodi:nodetypes="sssscccsscscccsssssccccccssssscccs" /><path
       style="fill:#806600;fill-opacity:1;stroke:url(#linearGradient4098);stroke-width:0.62;stroke-linecap:square;stroke-linejoin:bevel;stroke-dasharray:none"
       d="M 2.0995511,65.359998 C 6.6931693,58.307166 19.038099,39.999999 19.200364,39.999999 c 0.282097,0 12.906302,18.938486 12.906302,19.361679 0,0.177885 -0.981961,1.798279 -2.182137,3.600874 l -2.182137,3.277446 H 14.634393 1.5263936 Z m 26.6535739,0.9055 c 0,-0.498675 25.716891,-38.74398 26.048209,-38.736511 0.219268,0.0049 4.166282,5.674084 8.771146,12.598087 l 8.37248,12.5891 -4.502163,6.761911 -4.502167,6.761913 H 45.870314 c -9.388672,0 -17.117189,0.1146 -17.117189,0.0255 z m 35.746427,-0.9055 c 4.604845,-7.070073 16.938765,-25.359999 17.101664,-25.359999 0.119325,0 2.038768,2.733728 4.265427,6.07495 l 4.048467,6.07495 -3.917555,7.037066 -3.917555,7.037062 -9.076803,0.008 -9.076803,0.008 0.573158,-0.88 z m 18.957046,-0.16 c 0.345837,-0.572 8.438279,-15.008 17.983202,-32.079999 C 110.98473,16.048 118.84951,2.0199999 118.9171,1.9466666 118.9847,1.8733333 119.04,16.309333 119.04,34.026665 V 66.239998 H 100.9339 82.827802 Z"
       id="path1386"
       inkscape:label="path255"
       sodipodi:nodetypes="sssscccsscscccsssssccccccssssscccs" /><path
       style="fill:#ffffff;fill-opacity:1;stroke:#ededed;stroke-width:0.62;stroke-linecap:square;stroke-linejoin:bevel;stroke-opacity:1"
       d="m 25.615345,49.138872 c 1.561449,2.415011 6.027058,5.135494 3.407844,8.304986 -2.629162,1.557404 -6.126927,1.949499 -9.111498,1.324517 -3.404335,-0.435665 -3.961555,-4.486945 -7.227279,-5.089911"
       id="path1495" /><path
       style="fill:#ffffff;fill-opacity:1;stroke:#ededed;stroke-width:0.62;stroke-linecap:square;stroke-linejoin:bevel;stroke-opacity:1"
       d="m 8.1447998,55.673131 c -0.6828811,1.682222 1.0788747,3.378684 2.7488082,3.140542 1.946656,-0.0064 2.358598,-2.031614 2.844494,-3.491475 0.567768,-1.520867 2.140922,-3.112186 3.891217,-2.478131 0.990854,0.751157 2.009085,-0.225068 2.665648,-0.972824 0.819243,-0.943612 1.91783,-2.336677 3.337065,-1.80084 0.817077,0.542737 2.858169,1.051916 2.585231,-0.573102 -0.493297,-1.645643 -1.691846,-2.97568 -2.598634,-4.411733 -1.378187,-1.928508 -2.279999,-4.277138 -4.577446,-5.318614 -2.372564,2.929178 -3.801596,6.438817 -6.726827,8.917052 -1.81704,2.042481 -3.0677777,4.508161 -4.1695562,6.989125 z"
       id="path1186"
       sodipodi:nodetypes="ccccccccccc" /><path
       style="fill:#ffffff;fill-opacity:1;stroke:#ededed;stroke-width:0.62;stroke-linecap:square;stroke-linejoin:bevel;stroke-opacity:1"
       d="m 39.646807,50.101815 c -2.612702,0.967985 -4.188524,3.619474 -4.653141,6.260622 -0.805546,1.364037 -0.533759,3.307236 0.90167,4.141807 2.428517,1.526886 5.792323,1.210989 7.972896,-0.629435 2.391252,-1.811343 4.011018,-4.868407 7.139317,-5.534537 1.582915,-0.346073 3.192581,0.373555 4.769983,-0.125041 2.957944,-0.602955 5.446601,-2.814087 8.523949,-2.886461 2.01099,-0.0065 4.069177,0.844959 6.037546,0.152017 1.955575,-0.796293 0.761823,-2.947849 -0.719315,-3.47842 -1.371308,-0.766968 -3.070158,-1.182814 -3.973432,-2.577705"
       id="path1502" /><path
       style="fill:#ffffff;fill-opacity:1;stroke:#ededed;stroke-width:0.62;stroke-linecap:square;stroke-linejoin:bevel;stroke-opacity:1"
       d="m 39.509243,47.350548 c -2.074996,2.145682 -0.386921,5.820979 2.455741,6.143017 3.821479,1.370125 5.586815,-2.636857 8.447373,-4.00963 4.74696,-2.194336 10.198159,-1.260988 15.008499,0.180491 2.613585,0.914677 5.831561,-2.310053 3.397461,-4.545658 -2.470551,-2.928703 -4.049558,-6.494728 -6.342795,-9.56664 -2.095038,-2.765875 -3.597883,-6.046162 -5.93754,-8.574373 -2.645578,-1.573834 -5.315242,1.231674 -5.812737,3.723942 -0.790551,5.068254 -5.00782,8.381948 -8.380306,11.832485 -1.195968,1.407809 -3.01182,2.754049 -2.835696,4.816366 z"
       id="path1498" /><path
       style="fill:#ffffff;fill-opacity:1;stroke:#ededed;stroke-width:0.62;stroke-linecap:square;stroke-linejoin:bevel;stroke-opacity:1"
       d="m 51.064565,29.192186 c 0.262671,3.93743 -7.224823,10.18949 -0.80737,12.201719 4.214017,-0.569176 8.35371,-2.870904 12.339299,-0.1858 5.130062,0.181416 0.937767,-4.703516 0.124981,-7.060681 -1.552828,-3.458821 -3.269341,-7.68368 -7.173763,-8.964071 -2.263182,-0.25975 -4.194717,1.911166 -4.483147,4.008833 z"
       id="path1507" /><path
       style="fill:#ffffff;fill-opacity:1;stroke:#ededed;stroke-width:0.62;stroke-linecap:square;stroke-linejoin:bevel;stroke-opacity:1"
       d="m 73.624954,50.101815 c -0.77927,3.04641 -4.68288,4.691161 -4.228564,8.15652 0.252965,2.864971 4.673691,4.667464 6.333072,1.967162 0.919293,-2.074839 2.056111,-4.4296 4.46062,-5.065163 2.331922,-0.878358 4.402589,0.802473 6.576529,1.284974 2.690868,0.02263 4.063869,-3.60758 3.458993,-5.893611 -1.503229,-3.293973 -4.361614,-5.751442 -6.132297,-8.902911 -0.15507,-2.850504 -4.979013,-3.897816 -5.554767,-0.732503 -0.491143,2.135171 -0.619454,4.894315 -2.943378,5.90677 -1.326409,0.588443 -2.302363,1.747595 -1.970208,3.278762 z"
       id="path1511" /><path
       style="fill:#ffffff;fill-opacity:1;stroke:#ededed;stroke-width:0.62;stroke-linecap:square;stroke-linejoin:bevel;stroke-opacity:1"
       d="m 104.85183,26.578482 c -0.70727,6.434363 -1.87737,13.070594 -0.15077,19.448254 1.4705,3.278467 5.45996,3.44556 8.51214,4.123172 2.12122,0.3336 4.11223,2.581536 6.21258,0.839419 2.19375,-1.63337 2.15102,-4.704769 2.27377,-7.182541 -0.0537,-6.175273 -0.74001,-12.316922 -1.17623,-18.471216 l -0.18756,-0.484325 -0.21439,-0.473776"
       id="path1523" /><path
       style="fill:#ffffff;fill-opacity:1;stroke:#ededed;stroke-width:0.62;stroke-linecap:square;stroke-linejoin:bevel;stroke-opacity:1"
       d="m 92.058443,46.525168 c -1.970057,2.67205 -2.183301,8.824882 2.58984,7.891986 2.941808,-2.265388 5.126789,-5.509242 7.923167,-8.038077 1.87398,-3.192649 5.10074,-5.227723 8.51105,-3.23021 5.02366,-0.473773 1.9681,-7.674375 6.31569,-9.812883 3.15285,-2.40086 2.59715,-6.814351 3.31187,-10.323333 0.32292,-6.555313 -0.95072,-13.1813022 0.2883,-19.6966902 -2.5634,-5.4916336 -6.02632,1.8535954 -7.03952,4.7083232 -1.57439,3.905318 -4.08078,7.284016 -6.86344,10.386067 -3.99909,5.398402 -6.8395,11.486661 -9.688453,17.524649 -2.374462,3.262539 -4.536066,6.522723 -5.348504,10.590168 z"
       id="path1515" /><path
       style="fill:#ffffff;fill-opacity:1;stroke:#ededed;stroke-width:0.62;stroke-linecap:square;stroke-linejoin:bevel;stroke-opacity:1"
       d="m 119.02086,0.57900935 c -3.49454,0.39915677 -3.53479,4.82883035 -5.41102,7.07621395 -1.75405,2.3138785 -5.53161,4.9284347 -3.52454,8.2073527 2.1731,2.147478 3.82536,5.00912 6.66668,6.356456 2.63709,2.053244 6.27109,-0.224495 5.33544,-3.490611 -2.06687,-2.831296 -0.52904,-6.335651 -1.57689,-9.4094177 -1.3777,-2.8267273 1.65245,-6.3984626 -1.48967,-8.73999395 z"
       id="path1530" /></g></svg>
