<?xml version="1.0" encoding="UTF-8" standalone="no"?>
<!-- Created with Inkscape (http://www.inkscape.org/) -->

<svg
   width="210mm"
   height="297mm"
   viewBox="0 0 210 297"
   version="1.1"
   id="svg5"
   inkscape:export-filename="sunny.svg"
   inkscape:export-xdpi="96"
   inkscape:export-ydpi="96"
   xmlns:inkscape="http://www.inkscape.org/namespaces/inkscape"
   xmlns:sodipodi="http://sodipodi.sourceforge.net/DTD/sodipodi-0.dtd"
   xmlns="http://www.w3.org/2000/svg"
   xmlns:svg="http://www.w3.org/2000/svg">
  <sodipodi:namedview
     id="namedview7"
     pagecolor="#ffffff"
     bordercolor="#000000"
     borderopacity="0.25"
     inkscape:showpageshadow="2"
     inkscape:pageopacity="0.0"
     inkscape:pagecheckerboard="0"
     inkscape:deskcolor="#d1d1d1"
     inkscape:document-units="mm"
     showgrid="false"
     inkscape:zoom="0.5946522"
     inkscape:cx="358.19257"
     inkscape:cy="385.09905"
     inkscape:window-width="1347"
     inkscape:window-height="752"
     inkscape:window-x="1918"
     inkscape:window-y="172"
     inkscape:window-maximized="0"
     inkscape:current-layer="layer1" />
  <defs
     id="defs2" />
  <g
     inkscape:label="Layer 1"
     inkscape:groupmode="layer"
     id="layer1">
    <ellipse
       style="fill:#ffd364;fill-opacity:1;stroke:#ffeb43;stroke-width:0.164042;stroke-linecap:square;stroke-linejoin:bevel"
       id="path234"
       cx="105.67276"
       cy="93.214493"
       rx="48.720707"
       ry="48.275768" />
    <path
       style="fill:#333333;fill-opacity:1;stroke:#ffffff;stroke-width:0.164042;stroke-linecap:square;stroke-linejoin:bevel;stroke-opacity:1"
       d="M -17.797519,123.24781 C -41.559846,126.14428 -37.202115,83.96384 -14.01426,100.15893 1.6094615,90.986872 23.516289,56.153035 37.203737,88.394997 55.244446,116.21163 85.925112,94.13904 109.05145,90.568114 144.36087,88.438335 139.95689,150.74241 104.10616,132.2034 72.276291,109.78044 54.320671,156.04685 22.959474,146.40749 6.3845844,140.81406 5.3527543,110.97938 -17.797519,123.24781 Z"
       id="path2752" />
    <path
       style="fill:#333333;fill-opacity:1;stroke:#ffffff;stroke-width:0.164042;stroke-linecap:square;stroke-linejoin:bevel;stroke-opacity:1"
       d="m 230.92279,158.39791 c -8.46717,-12.55867 -22.59447,-6.88637 -31.34224,0.69115 -10.60661,0.37866 -21.72968,-2.90356 -29.77648,-10.02945 -8.62894,-6.32015 -19.26476,0.59118 -28.91633,-0.0722 -12.96191,1.02803 -26.04196,9.73553 -38.92193,4.13077 -5.9776,-5.77177 -20.759581,-22.34272 -22.389365,-5.36991 1.84898,14.51587 19.622211,17.88642 31.423855,14.14905 11.63405,-2.48728 22.83824,-7.55914 34.82855,-8.10279 13.63975,1.27321 12.02096,20.85443 23.67058,23.44045 10.54184,4.67181 21.61248,1.7697 28.40948,-7.38181 15.60319,-11.25489 17.20981,14.9898 29.29907,17.08631 15.33815,5.93826 35.10278,-7.88211 31.70892,-24.85631 1.62862,-17.18739 -14.96489,-19.162 -22.89554,-5.85397 -0.92416,1.90941 -3.28129,2.08624 -5.09857,2.16872 z"
       id="path2805" />
    <path
       style="fill:#333333;fill-opacity:1;stroke:#ffffff;stroke-width:0.164042;stroke-linecap:square;stroke-linejoin:bevel;stroke-opacity:1"
       d="m 204.22652,65.405878 c -6.72835,-12.642273 -25.26342,-17.464939 -36.54021,-7.946179 -10.79745,5.456667 -25.21453,6.533269 -34.98645,-1.630015 -7.80569,-5.620378 -18.19132,-4.99455 -27.26194,-3.894615 -7.39688,3.578634 -15.081354,7.243079 -23.710696,5.493837 -8.176453,-0.712345 -15.709732,-4.236385 -23.184348,-7.222581 -9.17152,-0.799479 -11.627702,15.528843 -0.678527,14.030981 12.555006,1.553342 24.961844,-2.370208 37.122302,-5.007863 10.244969,-2.774058 21.709919,-0.816796 30.967509,4.007361 8.98581,7.457881 -4.52278,14.626346 -11.23565,9.446574 -7.84653,-7.093659 -16.920613,-1.760576 -23.481353,4.320853 -6.883383,5.951413 -18.355671,-1.937374 -23.665658,4.982106 5.40443,10.065186 20.931813,4.10227 28.747475,-1.106948 11.449876,-6.72259 20.880136,4.548303 30.851716,6.019636 9.03004,-2.502892 18.28567,-4.717658 27.47551,-1.218742 10.55361,3.487256 2.20071,17.193097 -6.76945,11.424259 -9.32215,-3.967798 -10.03217,7.155108 -1.66016,8.468948 9.27963,0.76603 16.54014,-7.5038 26.06255,-3.09679 9.3106,0.25223 13.37623,-13.66165 5.46983,-18.644057 -8.93388,-3.907972 -4.94817,-16.960359 4.96414,-11.443381 7.57264,2.509993 16.4221,9.681351 24.27764,4.0346 5.04713,-2.071943 17.40266,-10.96117 7.76737,-14.461073 -3.72466,0.481251 -6.65685,3.646186 -10.5316,3.443089 z"
       id="path2811" />
    <path
       style="fill:#333333;fill-opacity:1;stroke:#fffef8;stroke-width:0.164042;stroke-linecap:square;stroke-linejoin:bevel;stroke-opacity:1"
       d="M -5.7841932,12.9032 C 12.227789,5.1938596 32.582716,18.713701 50.19117,9.0393736 59.760149,6.7214439 67.981718,14.560756 76.1827,18.332813 c 6.988627,4.161888 18.453277,3.929902 22.212019,-4.292026 7.229271,-9.0906861 19.070511,-1.982439 28.009021,-0.248771 7.1999,3.265335 18.5562,-6.0593218 9.63752,-9.0671659 5.8531,-0.1755322 19.96018,4.7392641 12.90832,12.0099099 -7.61693,4.551829 7.18603,7.330751 6.04883,-0.93142 0.41986,-5.8988599 5.23892,-16.9197274 9.60552,-6.6190491 -1.5478,6.4407421 6.45676,15.4334621 8.95601,5.1882261 -0.86106,-10.6064937 10.45601,0.0013 16.87588,-2.658779 10.73229,-0.43719 8.2255,-12.32998705 7.91267,-19.3471226 1.55806,-7.8608664 17.89045,-2.8930394 14.81482,3.0247339 -5.57788,-0.6144955 -10.75311,-5.9321553 -16.84093,-6.9956333 -15.56295,-4.739078 -31.98475,-5.240462 -47.86564,-8.462445 -33.63565,-4.285064 -66.815325,5.974593 -100.404916,5.660585 -18.017014,2.557303 -37.336785,-3.076435 -54.3548997,5.2412438 -2.4427068,1.98789 -4.0764113,5.0839828 -3.9304973,8.27502401"
       id="path2815" />
  </g>
</svg>
